<svg width="16" height="16" viewBox="0 0 16 16" fill="none" xmlns="http://www.w3.org/2000/svg">
<path d="M8.01375 0C9.08852 0.0189708 10.1633 0.0303533 11.2381 0.0607067C12.1723 0.0872658 13.0762 0.254209 13.8851 0.747451C14.9485 1.39625 15.5979 2.34859 15.8068 3.56272C15.9321 4.28741 15.9739 5.03486 15.9853 5.77093C16.0081 7.35689 16.0005 8.94664 15.9815 10.5326C15.9739 11.3673 15.9435 12.202 15.6663 13.0026C15.1308 14.5544 14.037 15.4992 12.4382 15.8027C11.7166 15.9393 10.9646 15.9696 10.2278 15.981C8.64418 16.0038 7.06051 15.9962 5.48064 15.9772C4.64513 15.9696 3.80962 15.9393 3.00829 15.6661C1.45121 15.1349 0.505562 14.0422 0.197942 12.4487C0.057425 11.7278 0.0270428 10.9765 0.0156495 10.2405C-0.0109348 8.65829 0.000458461 7.06853 0.0194473 5.48257C0.0270428 4.64785 0.057425 3.81314 0.334662 3.01257C0.870147 1.46075 1.9639 0.516007 3.56277 0.212473C4.28434 0.0758833 5.0363 0.0607067 5.77307 0.0303533C6.51743 0 7.26559 0.022765 8.01375 0.022765C8.01375 0.0151767 8.01375 0.00758833 8.01375 0ZM14.5839 7.88048C14.5725 7.88048 14.5611 7.88048 14.5497 7.88048C14.5497 7.25065 14.5611 6.62082 14.5459 5.99099C14.5307 5.38392 14.5079 4.77686 14.4472 4.17358C14.3105 2.82286 13.5053 1.8895 12.1723 1.63908C11.4735 1.50628 10.7443 1.48731 10.0304 1.47214C8.67456 1.44937 7.31876 1.44937 5.96295 1.47214C5.28695 1.48352 4.60715 1.50628 3.93874 1.61252C2.78422 1.78705 1.99429 2.45103 1.67527 3.59687C1.57273 3.9649 1.51197 4.35191 1.50437 4.73512C1.47019 6.1807 1.44741 7.63007 1.455 9.07565C1.4588 9.99763 1.47779 10.9196 1.55754 11.8378C1.67907 13.2113 2.51458 14.1484 3.87038 14.3951C4.56538 14.5203 5.28695 14.5355 5.99714 14.5506C7.33395 14.5734 8.67456 14.5658 10.0114 14.5544C10.6228 14.5468 11.2381 14.5127 11.8457 14.452C12.4154 14.3951 12.9508 14.2092 13.4066 13.8449C14.1509 13.2568 14.4358 12.4411 14.4813 11.5381C14.5383 10.3201 14.5497 9.09841 14.5839 7.88048Z" fill="#5D6476"/>
<path d="M12.1085 8.01326C12.1085 10.2898 10.2818 12.1148 7.99552 12.111C5.70166 12.111 3.89013 10.2822 3.89393 7.96773C3.89393 5.71399 5.74344 3.90417 8.04109 3.90417C10.2856 3.90417 12.1085 5.74814 12.1085 8.01326ZM7.99931 10.6692C9.46145 10.6692 10.6653 9.47022 10.6653 8.00946C10.6653 6.54871 9.46145 5.34596 8.00311 5.34596C6.54097 5.34596 5.33708 6.54491 5.33708 8.00567C5.33328 9.46642 6.53717 10.6692 7.99931 10.6692Z" fill="#5D6476"/>
<path d="M13.2289 3.73731C13.2289 4.27608 12.7959 4.71241 12.268 4.70862C11.7363 4.70482 11.2958 4.2647 11.3034 3.73731C11.3072 3.20992 11.7325 2.78498 12.2642 2.78498C12.8073 2.78118 13.2289 3.19475 13.2289 3.73731Z" fill="#5D6476"/>
</svg>
