<svg width="18" height="10" viewBox="0 0 18 10" fill="none" xmlns="http://www.w3.org/2000/svg">
<path d="M14.59 6.22288C14.69 6.33028 14.93 6.55402 15.32 6.88515H15.33L15.34 6.8941L15.35 6.90305L15.37 6.92095C16.21 7.61901 16.78 8.20968 17.08 8.69295C17.1 8.7198 17.12 8.7556 17.14 8.79139C17.16 8.82719 17.18 8.89879 17.2 9.00618C17.22 9.10463 17.22 9.19412 17.2 9.27467C17.18 9.35521 17.1 9.42681 16.98 9.49841C16.85 9.56105 16.68 9.59685 16.45 9.59685L14.15 9.63265C14.01 9.6595 13.84 9.6416 13.65 9.59685C13.46 9.54315 13.3 9.48051 13.18 9.41786L13 9.31942C12.82 9.20307 12.61 9.03303 12.37 8.80929C12.13 8.57661 11.93 8.37077 11.76 8.19178C11.59 8.00384 11.41 7.8517 11.21 7.7264C11.02 7.60111 10.85 7.55636 10.7 7.60111C10.68 7.61006 10.66 7.61901 10.63 7.62796C10.6 7.63691 10.55 7.68165 10.48 7.7443C10.41 7.80695 10.34 7.88749 10.29 7.97699C10.23 8.06648 10.18 8.20968 10.14 8.39762C10.1 8.58556 10.08 8.79139 10.08 9.02408C10.08 9.10463 10.07 9.17622 10.05 9.24782C10.02 9.29257 10 9.34626 9.97002 9.37311L9.94002 9.41786C9.83002 9.5163 9.67002 9.57895 9.46002 9.59685H8.43002C8.00002 9.61475 7.57002 9.57 7.12002 9.46261C6.67002 9.34626 6.28001 9.21202 5.94001 9.03303C5.60001 8.86299 5.29001 8.684 5.02001 8.50501C4.74001 8.32602 4.53001 8.17388 4.39001 8.03963L4.16001 7.8517C4.10001 7.798 4.02001 7.71745 3.91001 7.61006C3.81001 7.50266 3.60001 7.26103 3.27001 6.8762C2.95001 6.50032 2.63001 6.09759 2.32001 5.66801C2.01 5.23844 1.65 4.67462 1.22 3.97655C0.800002 3.26954 0.410001 2.54463 0.0500001 1.79287C0.02 1.70338 0 1.63178 0 1.57808C0 1.51544 0.01 1.47069 0.0300001 1.44384L0.0700002 1.39909C0.16 1.30065 0.330001 1.24695 0.580001 1.24695L3.04001 1.22905C3.10001 1.238 3.17001 1.2559 3.24001 1.28275C3.30001 1.3096 3.35001 1.3275 3.38001 1.35435L3.42001 1.38119C3.52001 1.44384 3.59001 1.52439 3.63001 1.64073C3.75001 1.90922 3.89001 2.18665 4.04001 2.47303C4.20001 2.75942 4.32001 2.97421 4.41001 3.12635L4.56001 3.35009C4.73001 3.67227 4.90001 3.94971 5.06001 4.18239C5.22001 4.41508 5.37001 4.60302 5.50001 4.72831C5.63001 4.86256 5.75001 4.961 5.87001 5.04155C5.99001 5.11314 6.09001 5.15789 6.18001 5.15789C6.26001 5.15789 6.34002 5.13999 6.42002 5.11314C6.43002 5.10419 6.45002 5.09524 6.46002 5.07734C6.48002 5.05945 6.51002 4.9968 6.57002 4.89835C6.62002 4.79991 6.66002 4.67462 6.69002 4.52247C6.72002 4.37033 6.74002 4.14659 6.78002 3.86916C6.81002 3.59172 6.81002 3.26059 6.78002 2.86681C6.77002 2.65203 6.74002 2.45514 6.70002 2.2851C6.66002 2.1061 6.62002 1.98976 6.58002 1.91816L6.52002 1.81972C6.37002 1.64073 6.12001 1.52439 5.76001 1.47069C5.68001 1.46174 5.69001 1.39909 5.80001 1.2738C5.90001 1.17535 6.02001 1.09481 6.14001 1.03216C6.46002 0.89792 7.17002 0.835273 8.29002 0.844223C8.78002 0.853172 9.18002 0.88897 9.50002 0.951617C9.62002 0.978466 9.72002 1.01426 9.80002 1.05901C9.88002 1.10376 9.94002 1.16641 9.98002 1.2559C10.02 1.33645 10.05 1.42594 10.07 1.51544C10.09 1.60493 10.1 1.72128 10.1 1.88237C10.1 2.04346 10.1 2.18665 10.09 2.32089C10.08 2.46409 10.08 2.65203 10.07 2.88471C10.06 3.12635 10.06 3.34114 10.06 3.54698C10.06 3.60962 10.06 3.71702 10.05 3.88706C10.04 4.04815 10.04 4.18239 10.05 4.27189C10.05 4.36138 10.06 4.46878 10.08 4.59407C10.1 4.71936 10.13 4.82676 10.18 4.9073C10.23 4.98785 10.3 5.05945 10.38 5.10419C10.43 5.11314 10.48 5.12209 10.53 5.13999C10.58 5.14894 10.66 5.12209 10.76 5.0505C10.86 4.9789 10.97 4.8894 11.1 4.77306C11.22 4.65672 11.38 4.47773 11.57 4.23609C11.76 3.99445 11.96 3.70807 12.18 3.37694C12.54 2.82207 12.86 2.22245 13.14 1.56913C13.16 1.51544 13.19 1.47069 13.23 1.42594C13.27 1.39014 13.3 1.35435 13.33 1.3454L13.37 1.31855L13.42 1.30065C13.42 1.30065 13.46 1.2917 13.54 1.2738C13.62 1.2559 13.68 1.2559 13.72 1.2738L16.3 1.2559C16.53 1.22905 16.72 1.238 16.87 1.2738C17.02 1.3096 17.11 1.35435 17.15 1.40804L17.2 1.48859C17.34 1.82867 16.89 2.61623 15.86 3.85126C15.72 4.0213 15.52 4.25399 15.28 4.53142C14.81 5.0684 14.54 5.41743 14.47 5.57852C14.36 5.79331 14.4 6.00809 14.59 6.22288Z" fill="#5D6476"/>
</svg>
